<?xml version="1.0" encoding="UTF-8" standalone="no"?>
<!DOCTYPE svg PUBLIC "-//W3C//DTD SVG 1.1//EN"
 "http://www.w3.org/Graphics/SVG/1.1/DTD/svg11.dtd">
<!-- Generated by graphviz version 12.1.2 (20240928.0832)
 -->
<!-- Pages: 1 -->
<svg width="288pt" height="99pt"
 viewBox="0.00 0.00 288.00 99.03" xmlns="http://www.w3.org/2000/svg" xmlns:xlink="http://www.w3.org/1999/xlink">
<g id="graph0" class="graph" transform="scale(0.970891 0.970891) rotate(0) translate(4 98)">
<polygon fill="white" stroke="none" points="-4,4 -4,-98 292.63,-98 292.63,4 -4,4"/>
<!-- 4 -->
<g id="node1" class="node">
<title>4</title>
<polygon fill="none" stroke="black" points="207.32,-28.5 207.32,-65.5 288.63,-65.5 288.63,-28.5 207.32,-28.5"/>
<text text-anchor="middle" x="247.98" y="-42.9" font-family="Times,serif" font-size="14.00">data 6.0000</text>
</g>
<!-- 4* -->
<g id="node2" class="node">
<title>4*</title>
<ellipse fill="none" stroke="black" cx="144.32" cy="-47" rx="27" ry="18"/>
<text text-anchor="middle" x="144.32" y="-42.8" font-family="Times,serif" font-size="14.00">*</text>
</g>
<!-- 4*&#45;&gt;4 -->
<g id="edge1" class="edge">
<title>4*&#45;&gt;4</title>
<path fill="none" stroke="black" d="M171.76,-47C179.04,-47 187.19,-47 195.37,-47"/>
<polygon fill="black" stroke="black" points="195.35,-50.5 205.35,-47 195.35,-43.5 195.35,-50.5"/>
</g>
<!-- 1 -->
<g id="node3" class="node">
<title>1</title>
<polygon fill="none" stroke="black" points="0,-56.5 0,-93.5 81.32,-93.5 81.32,-56.5 0,-56.5"/>
<text text-anchor="middle" x="40.66" y="-70.9" font-family="Times,serif" font-size="14.00">data 2.0000</text>
</g>
<!-- 1&#45;&gt;4* -->
<g id="edge2" class="edge">
<title>1&#45;&gt;4*</title>
<path fill="none" stroke="black" d="M81.55,-64.01C90.19,-61.63 99.27,-59.13 107.74,-56.8"/>
<polygon fill="black" stroke="black" points="108.62,-60.19 117.34,-54.16 106.77,-53.44 108.62,-60.19"/>
</g>
<!-- 2 -->
<g id="node4" class="node">
<title>2</title>
<polygon fill="none" stroke="black" points="0,-0.5 0,-37.5 81.32,-37.5 81.32,-0.5 0,-0.5"/>
<text text-anchor="middle" x="40.66" y="-14.9" font-family="Times,serif" font-size="14.00">data 3.0000</text>
</g>
<!-- 2&#45;&gt;4* -->
<g id="edge3" class="edge">
<title>2&#45;&gt;4*</title>
<path fill="none" stroke="black" d="M81.55,-29.99C90.19,-32.37 99.27,-34.87 107.74,-37.2"/>
<polygon fill="black" stroke="black" points="106.77,-40.56 117.34,-39.84 108.62,-33.81 106.77,-40.56"/>
</g>
</g>
</svg>
